<svg xmlns="http://www.w3.org/2000/svg" width="40" height="40" viewBox="0 0 40 40"><g transform="translate(5)" opacity="0.997"><circle cx="20" cy="20" r="20" transform="translate(-5)" fill="#1a1a1a"/><g transform="translate(6.447 10.28)"><rect width="18" height="18" fill="rgba(255,19,220,0)"/><g transform="translate(0.681 1)"><path d="M8,1a4.5,4.5,0,1,0,4.5,4.5A4.5,4.5,0,0,0,8,1ZM8,8a2.5,2.5,0,1,1,2.5-2.5A2.5,2.5,0,0,1,8,8Z" transform="translate(-0.681 -1)" fill="#fff"/><path d="M14,10a1,1,0,0,0-1,1v2H11a1,1,0,0,0,0,2h2v2a1,1,0,0,0,2,0V15h2a1,1,0,0,0,0-2H15V11a1,1,0,0,0-1-1Z" transform="translate(-0.681 -1)" fill="#fff"/><path d="M1.68,16.985a1,1,0,0,0,.9-.569A6.034,6.034,0,0,1,8,13a1,1,0,1,0,0-2A8.045,8.045,0,0,0,.778,15.555a1,1,0,0,0,.9,1.431Z" transform="translate(-0.681 -1)" fill="#fff"/></g></g></g></svg>