<svg xmlns="http://www.w3.org/2000/svg" xmlns:xlink="http://www.w3.org/1999/xlink" width="18" height="18" viewBox="0 0 18 18">
  <defs>
    <clipPath id="clip-Artboard_1">
      <rect width="18" height="18"/>
    </clipPath>
  </defs>
  <g id="Artboard_1" data-name="Artboard – 1" clip-path="url(#clip-Artboard_1)">
    <g id="SL_Text_Md_N">
      <g id="SMOCK">
        <rect id="Canvas" width="18" height="18" fill="rgba(255,19,220,0)"/>
      </g>
      <g id="Icon" transform="translate(1 1)">
        <path id="Path_123917" data-name="Path 123917" d="M16,5a1,1,0,0,0,1-1V2a1,1,0,0,0-1-1H2A1,1,0,0,0,1,2V4A1,1,0,1,0,3,4V3H8V15H7a1,1,0,0,0,0,2h4a1,1,0,0,0,0-2H10V3h5V4A1,1,0,0,0,16,5Z" transform="translate(-1 -1)" fill="#444"/>
      </g>
    </g>
  </g>
</svg>
