<svg xmlns="http://www.w3.org/2000/svg" height="22" id="S_Text_22_N" viewBox="0 0 22 22" width="22">
  <defs>
    <style>
      .fill {
        fill: #6E6E6E;
      }

      
    </style>
  </defs>
  <rect id="Canvas" fill="#ff13dc" opacity="0" width="22" height="22" /><path class="fill" d="M3.5,3a.5.5,0,0,0-.5.5V7a.5.5,0,0,0,.5.5H5A.5.5,0,0,0,5.5,7V5.5h4v11H8a.5.5,0,0,0-.5.5v1.5A.5.5,0,0,0,8,19h5.5a.5.5,0,0,0,.5-.5V17a.5.5,0,0,0-.5-.5H12V5.5h4V7a.5.5,0,0,0,.5.5H18a.5.5,0,0,0,.5-.5V3.5A.5.5,0,0,0,18,3Z" />
  </svg>