<svg xmlns="http://www.w3.org/2000/svg" width="22" height="22" viewBox="0 0 22 22"><g fill="red" stroke="rgba(0,0,0,0)" stroke-width="1" opacity="0"><rect width="22" height="22" stroke="none"/><rect x="0.5" y="0.5" width="21" height="21" fill="none"/></g><g fill="#747474" stroke="#747474" stroke-width="1" opacity="0"><rect width="22" height="22" stroke="none"/><rect x="0.5" y="0.5" width="21" height="21" fill="none"/></g><path d="M5,3.5A2.5,2.5,0,0,0,2.5,6v6.471a2.5,2.5,0,0,0,2.5,2.5h.5V19.4c0,.1,0,.462.191.549s.428-.088.5-.159L11,14.971h6a2.5,2.5,0,0,0,2.5-2.5V6A2.5,2.5,0,0,0,17,3.5Z" fill="#444"/></svg>