<svg xmlns="http://www.w3.org/2000/svg" xmlns:xlink="http://www.w3.org/1999/xlink" width="18" height="18" viewBox="0 0 18 18">
  <defs>
    <clipPath id="clip-Artboard_2">
      <rect width="18" height="18"/>
    </clipPath>
  </defs>
  <g id="Artboard_2" data-name="Artboard – 2" clip-path="url(#clip-Artboard_2)">
    <g id="SL_Text_Md_N">
      <g id="SMOCK">
        <rect id="Canvas" width="18" height="18" fill="rgba(255,19,220,0)"/>
      </g>
    </g>
    <g id="SX_Elements_18_N">
      <g id="SMOCK-2" data-name="SMOCK" transform="translate(0 0)">
        <rect id="Canvas-2" data-name="Canvas" width="18" height="18" fill="rgba(255,19,220,0)"/>
      </g>
      <g id="ICONS" transform="translate(0.003)">
        <path id="Path_119829" data-name="Path 119829" d="M10.864,4.028l-1.4-2.563a2.808,2.808,0,0,0-4.932,0L2.521,5.158.346,8.846A2.809,2.809,0,0,0,2.812,13h1.5A6.993,6.993,0,1,0,11,4a.937.937,0,0,0-.136.028ZM2.116,10.6a.782.782,0,0,1-.031-.772L4.26,6.144,6.29,2.422a.808.808,0,0,1,1.42,0L9.757,6.174,11.9,9.8a.81.81,0,0,1-.71,1.2H2.811a.8.8,0,0,1-.7-.4ZM16,11a5,5,0,0,1-9.581,2h4.769a2.809,2.809,0,0,0,2.449-4.184l-1.6-2.7A5.006,5.006,0,0,1,16,11Z" transform="translate(-0.003 0)" fill="#444"/>
      </g>
    </g>
  </g>
</svg>
