<svg xmlns="http://www.w3.org/2000/svg" xmlns:xlink="http://www.w3.org/1999/xlink" width="18" height="18" viewBox="0 0 18 18">
  <defs>
    <clipPath id="clip-Artboard_3">
      <rect width="18" height="18"/>
    </clipPath>
  </defs>
  <g id="Artboard_3" data-name="Artboard – 3" clip-path="url(#clip-Artboard_3)">
    <g id="SL_Image_Md_N">
      <g id="SMOCK">
        <rect id="Canvas" width="18" height="18" fill="rgba(255,19,220,0)"/>
      </g>
      <g id="Icon" transform="translate(0 1)">
        <circle id="Ellipse_24504" data-name="Ellipse 24504" cx="1.5" cy="1.5" r="1.5" transform="translate(11 4)" fill="#484848"/>
        <path id="Path_123906" data-name="Path 123906" d="M5,17h8a4.986,4.986,0,0,0,4.41-2.694c0-.012.014-.022.018-.034A4.926,4.926,0,0,0,18,12V6a5.006,5.006,0,0,0-5-5H5A5.006,5.006,0,0,0,0,6v6a5.006,5.006,0,0,0,5,5Zm8-2H5a3,3,0,0,1-2.918-2.329.964.964,0,0,0,.223-.2L5.049,8.747a.213.213,0,0,1,.285.006L9,13.4a1,1,0,0,0,.727.379.956.956,0,0,0,.766-.291l1.915-1.916a.217.217,0,0,1,.351,0L15.2,14.021A2.983,2.983,0,0,1,13,15ZM5,3h8a3,3,0,0,1,3,3v5.99l-1.829-1.829a2.3,2.3,0,0,0-3.179,0l-1.119,1.12L6.855,7.451c-.024-.03-.05-.059-.078-.088a2.3,2.3,0,0,0-3.178,0,.881.881,0,0,0-.1.114L2,9.512V6A3,3,0,0,1,5,3Z" transform="translate(0 -1)" fill="#484848"/>
      </g>
    </g>
  </g>
</svg>
