<svg xmlns="http://www.w3.org/2000/svg" xmlns:xlink="http://www.w3.org/1999/xlink" width="18" height="18" viewBox="0 0 18 18">
  <defs>
    <clipPath id="clip-Artboard_5">
      <rect width="18" height="18"/>
    </clipPath>
  </defs>
  <g id="Artboard_5" data-name="Artboard – 5" clip-path="url(#clip-Artboard_5)">
    <g id="SL_Image_Md_N">
      <g id="SMOCK">
        <rect id="Canvas" width="18" height="18" fill="rgba(255,19,220,0)"/>
      </g>
      <path id="Subtraction_1" data-name="Subtraction 1" d="M-521-451h-6a4,4,0,0,1-4-4v-5a4,4,0,0,1,4-4h6a4.005,4.005,0,0,1,4,4v5A4.005,4.005,0,0,1-521-451Zm-6-11a2,2,0,0,0-2,2v5a2,2,0,0,0,2,2h6a2,2,0,0,0,2-2v-5a2,2,0,0,0-2-2Z" transform="translate(535 468)" fill="#484848"/>
    </g>
    <rect id="Rectangle_2" data-name="Rectangle 2" width="4" height="2" rx="1" transform="translate(0 4)" fill="#484848"/>
    <rect id="Rectangle_3" data-name="Rectangle 3" width="2" height="4" rx="1" transform="translate(4)" fill="#484848"/>
  </g>
</svg>
