<svg xmlns="http://www.w3.org/2000/svg" height="22" id="S_Artboard_22_N" viewBox="0 0 22 22" width="22">
  <defs>
    <style>
      .fill {
        fill: #6E6E6E;
      }

      
    </style>
  </defs>
  <rect id="Canvas" fill="#ff13dc" opacity="0" width="22" height="22" /><path class="fill" d="M6,6.5v12a.5.5,0,0,0,.5.5h12a.5.5,0,0,0,.5-.5V9.707a.5.5,0,0,0-.146-.353L15.646,6.146A.5.5,0,0,0,15.293,6H6.5A.5.5,0,0,0,6,6.5Zm11.5,11H7.5V7.5h7V10a.5.5,0,0,0,.5.5h2.5Z" />
  <path class="fill" d="M7.25,1h-1A.25.25,0,0,0,6,1.25V4.5H7.5V1.25A.25.25,0,0,0,7.25,1Z" />
  <path class="fill" d="M1.25,7.5H4.5V6H1.25A.25.25,0,0,0,1,6.25v1A.25.25,0,0,0,1.25,7.5Z" />
  </svg>